<mxfile host="app.diagrams.net" modified="2024-01-17T11:00:07.191Z" agent="Mozilla/5.0 (Windows NT 10.0; Win64; x64) AppleWebKit/537.36 (KHTML, like Gecko) Chrome/120.0.0.0 Safari/537.36" etag="jsp1M3hgMMWQt1y0ceaC" version="22.1.18" type="github">
  <diagram name="第 1 页" id="rjAUkO0vNHYu7uV1Q9YC">
    <mxGraphModel dx="1235" dy="624" grid="1" gridSize="10" guides="1" tooltips="1" connect="1" arrows="1" fold="1" page="1" pageScale="1" pageWidth="827" pageHeight="1169" math="0" shadow="0">
      <root>
        <mxCell id="0" />
        <mxCell id="1" parent="0" />
        <mxCell id="1iiOVpeckg8WZ8sWALq8-1" value="" style="rounded=1;whiteSpace=wrap;html=1;" vertex="1" parent="1">
          <mxGeometry x="600" y="80" width="180" height="400" as="geometry" />
        </mxCell>
        <mxCell id="1iiOVpeckg8WZ8sWALq8-2" value="风控规则-征信报告" style="rounded=1;whiteSpace=wrap;html=1;" vertex="1" parent="1">
          <mxGeometry x="630" y="140" width="120" height="60" as="geometry" />
        </mxCell>
        <mxCell id="1iiOVpeckg8WZ8sWALq8-3" value="规则集" style="text;html=1;strokeColor=none;fillColor=none;align=center;verticalAlign=middle;whiteSpace=wrap;rounded=0;" vertex="1" parent="1">
          <mxGeometry x="620" y="90" width="60" height="30" as="geometry" />
        </mxCell>
        <mxCell id="1iiOVpeckg8WZ8sWALq8-4" value="贷后逾期数据" style="rounded=1;whiteSpace=wrap;html=1;" vertex="1" parent="1">
          <mxGeometry x="630" y="220" width="120" height="60" as="geometry" />
        </mxCell>
        <mxCell id="1iiOVpeckg8WZ8sWALq8-9" style="edgeStyle=orthogonalEdgeStyle;rounded=0;orthogonalLoop=1;jettySize=auto;html=1;entryX=0;entryY=0.25;entryDx=0;entryDy=0;" edge="1" parent="1" source="1iiOVpeckg8WZ8sWALq8-5" target="1iiOVpeckg8WZ8sWALq8-1">
          <mxGeometry relative="1" as="geometry" />
        </mxCell>
        <mxCell id="1iiOVpeckg8WZ8sWALq8-10" value="添加修改" style="edgeLabel;html=1;align=center;verticalAlign=middle;resizable=0;points=[];" vertex="1" connectable="0" parent="1iiOVpeckg8WZ8sWALq8-9">
          <mxGeometry x="-0.1375" y="1" relative="1" as="geometry">
            <mxPoint as="offset" />
          </mxGeometry>
        </mxCell>
        <mxCell id="1iiOVpeckg8WZ8sWALq8-12" style="edgeStyle=orthogonalEdgeStyle;rounded=0;orthogonalLoop=1;jettySize=auto;html=1;" edge="1" parent="1" source="1iiOVpeckg8WZ8sWALq8-5">
          <mxGeometry relative="1" as="geometry">
            <mxPoint x="300" y="330" as="targetPoint" />
          </mxGeometry>
        </mxCell>
        <mxCell id="1iiOVpeckg8WZ8sWALq8-13" value="编辑规则文件" style="edgeLabel;html=1;align=center;verticalAlign=middle;resizable=0;points=[];" vertex="1" connectable="0" parent="1iiOVpeckg8WZ8sWALq8-12">
          <mxGeometry x="-0.2928" y="2" relative="1" as="geometry">
            <mxPoint as="offset" />
          </mxGeometry>
        </mxCell>
        <mxCell id="1iiOVpeckg8WZ8sWALq8-5" value="前端配置操作界面" style="rounded=1;whiteSpace=wrap;html=1;" vertex="1" parent="1">
          <mxGeometry x="160" y="120" width="280" height="120" as="geometry" />
        </mxCell>
        <mxCell id="1iiOVpeckg8WZ8sWALq8-17" style="edgeStyle=orthogonalEdgeStyle;rounded=0;orthogonalLoop=1;jettySize=auto;html=1;entryX=0.5;entryY=0;entryDx=0;entryDy=0;" edge="1" parent="1" source="1iiOVpeckg8WZ8sWALq8-6" target="1iiOVpeckg8WZ8sWALq8-16">
          <mxGeometry relative="1" as="geometry" />
        </mxCell>
        <mxCell id="1iiOVpeckg8WZ8sWALq8-18" value="输出规则结果" style="edgeLabel;html=1;align=center;verticalAlign=middle;resizable=0;points=[];" vertex="1" connectable="0" parent="1iiOVpeckg8WZ8sWALq8-17">
          <mxGeometry x="-0.504" y="-3" relative="1" as="geometry">
            <mxPoint as="offset" />
          </mxGeometry>
        </mxCell>
        <mxCell id="1iiOVpeckg8WZ8sWALq8-6" value="" style="rounded=1;whiteSpace=wrap;html=1;" vertex="1" parent="1">
          <mxGeometry x="160" y="340" width="320" height="140" as="geometry" />
        </mxCell>
        <mxCell id="1iiOVpeckg8WZ8sWALq8-7" value="规则引擎" style="text;html=1;strokeColor=none;fillColor=none;align=center;verticalAlign=middle;whiteSpace=wrap;rounded=0;" vertex="1" parent="1">
          <mxGeometry x="190" y="350" width="60" height="30" as="geometry" />
        </mxCell>
        <mxCell id="1iiOVpeckg8WZ8sWALq8-14" style="edgeStyle=orthogonalEdgeStyle;rounded=0;orthogonalLoop=1;jettySize=auto;html=1;entryX=0.006;entryY=0.823;entryDx=0;entryDy=0;entryPerimeter=0;" edge="1" parent="1" source="1iiOVpeckg8WZ8sWALq8-6" target="1iiOVpeckg8WZ8sWALq8-1">
          <mxGeometry relative="1" as="geometry" />
        </mxCell>
        <mxCell id="1iiOVpeckg8WZ8sWALq8-15" value="执行调度具体规则" style="edgeLabel;html=1;align=center;verticalAlign=middle;resizable=0;points=[];" vertex="1" connectable="0" parent="1iiOVpeckg8WZ8sWALq8-14">
          <mxGeometry x="0.0633" y="1" relative="1" as="geometry">
            <mxPoint as="offset" />
          </mxGeometry>
        </mxCell>
        <mxCell id="1iiOVpeckg8WZ8sWALq8-16" value="A++&lt;br&gt;A&lt;br&gt;B&lt;br&gt;C" style="rounded=1;whiteSpace=wrap;html=1;" vertex="1" parent="1">
          <mxGeometry x="255" y="585" width="130" height="85" as="geometry" />
        </mxCell>
        <mxCell id="1iiOVpeckg8WZ8sWALq8-19" value="Actor" style="shape=umlActor;verticalLabelPosition=bottom;verticalAlign=top;html=1;outlineConnect=0;" vertex="1" parent="1">
          <mxGeometry x="20" y="390" width="30" height="60" as="geometry" />
        </mxCell>
        <mxCell id="1iiOVpeckg8WZ8sWALq8-20" style="edgeStyle=orthogonalEdgeStyle;rounded=0;orthogonalLoop=1;jettySize=auto;html=1;entryX=0;entryY=0.571;entryDx=0;entryDy=0;entryPerimeter=0;" edge="1" parent="1" source="1iiOVpeckg8WZ8sWALq8-19" target="1iiOVpeckg8WZ8sWALq8-6">
          <mxGeometry relative="1" as="geometry" />
        </mxCell>
        <mxCell id="1iiOVpeckg8WZ8sWALq8-21" value="客户原始数据" style="edgeLabel;html=1;align=center;verticalAlign=middle;resizable=0;points=[];" vertex="1" connectable="0" parent="1iiOVpeckg8WZ8sWALq8-20">
          <mxGeometry x="0.0372" relative="1" as="geometry">
            <mxPoint as="offset" />
          </mxGeometry>
        </mxCell>
        <mxCell id="1iiOVpeckg8WZ8sWALq8-22" value="客户等级" style="text;html=1;strokeColor=none;fillColor=none;align=center;verticalAlign=middle;whiteSpace=wrap;rounded=0;" vertex="1" parent="1">
          <mxGeometry x="250" y="584.5" width="60" height="30" as="geometry" />
        </mxCell>
        <mxCell id="1iiOVpeckg8WZ8sWALq8-23" value="K-value 类" style="rounded=1;whiteSpace=wrap;html=1;" vertex="1" parent="1">
          <mxGeometry x="630" y="310" width="120" height="60" as="geometry" />
        </mxCell>
        <mxCell id="1iiOVpeckg8WZ8sWALq8-24" value="function(a,b) 类" style="rounded=1;whiteSpace=wrap;html=1;" vertex="1" parent="1">
          <mxGeometry x="630" y="400" width="120" height="60" as="geometry" />
        </mxCell>
        <mxCell id="1iiOVpeckg8WZ8sWALq8-25" value="&lt;h1&gt;基本要求&lt;/h1&gt;&lt;p&gt;矢量数量可选&lt;/p&gt;&lt;p&gt;矢量规则&lt;/p&gt;" style="text;html=1;strokeColor=none;fillColor=none;spacing=5;spacingTop=-20;whiteSpace=wrap;overflow=hidden;rounded=0;" vertex="1" parent="1">
          <mxGeometry x="510" y="540" width="190" height="120" as="geometry" />
        </mxCell>
      </root>
    </mxGraphModel>
  </diagram>
</mxfile>
